# xmcd
#
# Track frame offsets: 
#        150
#        14020
#        30502
#        48174
#        62060
#        81260
#        98577
#        114944
#        127662
#        150427
#        170068
#        189524
#        204629
#        226415
#
# Disc length: 3241 seconds
#
# Revision: 1
# Processed by: cddbd v1.5.2PL0 Copyright (c) Steve Scherf et al.
# Submitted via: ExactAudioCopy v0.99pb5
#
DISCID=a80ca70e
DTITLE=Topm Phillips - Downtown Cowboy
DYEAR=2007
DGENRE=Country
TTITLE0=Inspiration For That Fool
TTITLE1=The Way Life's Been
TTITLE2=All The Things That Didn't Matter
TTITLE3=Hello Central
TTITLE4=Debts To Pay
TTITLE5=Half A Mind
TTITLE6=Nowhere Fast
TTITLE7=One More Cup Of Coffee
TTITLE8=Downtown Cowboy
TTITLE9=Hit Every Honky Tonk In Town
TTITLE10=Pennies A Play
TTITLE11=Turnin' On Every Light
TTITLE12=Play Hank Williams 'till I Die
TTITLE13=Sing Like An Angel
EXTD=
EXTT0=
EXTT1=
EXTT2=
EXTT3=
EXTT4=
EXTT5=
EXTT6=
EXTT7=
EXTT8=
EXTT9=
EXTT10=
EXTT11=
EXTT12=
EXTT13=
PLAYORDER=
